<svg width="329" height="428" viewBox="0 0 329 428" fill="none" xmlns="http://www.w3.org/2000/svg">
<g clip-path="url(#clip0_380_141)">
<path d="M115.846 401.774H260.263V400.735H116.885V350.345H248.123L254.498 337.063L253.561 336.613L247.472 349.305H115.846V401.774Z" fill="#373A49"/>
<path d="M241.042 427.228C247.067 427.228 251.951 422.344 251.951 416.319C251.951 410.294 247.067 405.41 241.042 405.41C235.017 405.41 230.133 410.294 230.133 416.319C230.133 422.344 235.017 427.228 241.042 427.228Z" fill="#555866"/>
<path d="M133.508 427.228C139.533 427.228 144.417 422.344 144.417 416.319C144.417 410.294 139.533 405.41 133.508 405.41C127.483 405.41 122.599 410.294 122.599 416.319C122.599 422.344 127.483 427.228 133.508 427.228Z" fill="#555866"/>
<path d="M6.753 191.38C10.4826 191.38 13.506 188.357 13.506 184.627C13.506 180.897 10.4826 177.874 6.753 177.874C3.02342 177.874 0 180.897 0 184.627C0 188.357 3.02342 191.38 6.753 191.38Z" fill="#555866"/>
<path d="M100.4 333.203H262.726L297.85 218.396H64.228L64.441 219.07L100.4 333.203ZM261.958 332.164H101.158L65.645 219.435H296.445L261.958 332.164Z" fill="#373A49"/>
<path d="M113.072 327.227H255.648L286.498 225.407H81.301L81.488 226.007L113.072 327.227Z" fill="#ABB0C4"/>
<path d="M61.318 208.136L62.318 207.869L55.467 182.03H15.585V183.069H54.667L61.318 208.136Z" fill="#373A49"/>
<path d="M286.5 253.2H75.903V254.239H286.5V253.2Z" fill="#373A49"/>
<path d="M274.789 291.478H87.963V292.517H274.789V291.478Z" fill="#373A49"/>
<path d="M181.561 218.914H180.522V332.682H181.561V218.914Z" fill="#373A49"/>
<path d="M132.966 218.949L140.425 332.715L141.462 332.647L134.003 218.881L132.966 218.949Z" fill="#373A49"/>
<path d="M220.641 332.646L221.678 332.714L229.089 218.933L228.052 218.865L220.641 332.646Z" fill="#373A49"/>
<path d="M80.4884 85.3456L68.7812 142.204C72.9668 145.104 77.7897 146.952 82.8413 147.591L95.1586 85.8481C90.3759 84.5305 85.3501 84.3584 80.4884 85.3456Z" fill="#F0F4FF"/>
<path d="M80.3651 85.4453L67.5755 63.7996L49.9037 74.2412L62.6539 95.82C67.2435 90.493 73.4741 86.8433 80.3651 85.4453Z" fill="#4E66DD"/>
<path d="M92.842 146.911L105.929 169.06L123.601 158.618L110.474 136.402C105.925 141.764 99.7223 145.46 92.842 146.911Z" fill="#4E66DD"/>
<path d="M102.79 143.357C87.755 152.24 68.2951 147.236 59.4112 132.2C50.5273 117.165 55.5319 97.705 70.5674 88.8211C85.6028 79.9372 105.063 84.9419 113.947 99.9773C122.83 115.013 117.826 134.473 102.79 143.357ZM70.6796 89.0111C55.749 97.8331 50.7792 117.157 59.6012 132.088C68.4232 147.019 87.7475 151.989 102.678 143.167C117.609 134.345 122.579 115.02 113.757 100.09C104.935 85.1589 85.6103 80.1891 70.6796 89.0111Z" fill="#737684"/>
<path d="M67.487 127.428C70.4945 132.518 75.4008 136.205 81.1266 137.678C86.8524 139.15 92.9286 138.288 98.0186 135.28L75.339 96.8965C70.249 99.904 66.5622 104.81 65.0897 110.536C63.6171 116.262 64.4795 122.338 67.487 127.428Z" fill="#737684"/>
<path d="M75.3391 96.8965L98.0187 135.28C103.109 132.273 106.796 127.366 108.268 121.641C109.741 115.915 108.878 109.839 105.871 104.749C102.863 99.6586 97.957 95.9718 92.2312 94.4992C86.5054 93.0267 80.4291 93.889 75.3391 96.8965Z" fill="#4E66DD"/>
<path d="M88.8121 119.699C90.2814 118.831 90.7687 116.936 89.9006 115.467C89.0324 113.998 87.1377 113.51 85.6684 114.378C84.1992 115.246 83.7119 117.141 84.58 118.61C85.4481 120.08 87.3429 120.567 88.8121 119.699Z" fill="#373A49"/>
<path d="M81.4713 107.285L85.2408 112.152L89.0104 117.018L87.6848 117.801L86.3592 118.584L83.9152 112.935L81.4713 107.285Z" fill="#373A49"/>
<path d="M103.19 107.816L94.7333 113.25L86.2764 118.683L85.8348 117.925L85.3932 117.166L94.2917 112.491L103.19 107.816Z" fill="#373A49"/>
<path d="M116.244 101.696C115.804 101.956 115.448 101.759 114.997 101.509C114.884 101.447 114.762 101.379 114.627 101.311L114.726 101.114C114.864 101.183 114.989 101.252 115.104 101.316C115.553 101.565 115.8 101.702 116.132 101.506C117.232 100.856 117.044 98.4946 115.713 96.242C114.382 93.9893 112.404 92.6854 111.304 93.3354C110.669 93.7107 110.459 94.3636 110.623 95.4523L110.404 95.4852C110.225 94.2948 110.468 93.5731 111.192 93.1454C112.396 92.4335 114.51 93.7722 115.903 96.1297C117.296 98.4872 117.449 100.984 116.244 101.696Z" fill="#737684"/>
<path d="M293.226 119.315L236.206 130.212C235.125 135.188 235.259 140.351 236.598 145.264L298.364 133.065C297.755 128.142 295.995 123.431 293.226 119.315Z" fill="#F0F4FF"/>
<path d="M293.087 119.239L308.207 99.1515L291.807 86.8076L276.734 106.833C283.41 109.04 289.163 113.404 293.087 119.239Z" fill="#7999FE"/>
<path d="M241.053 154.23L225.582 174.784L241.981 187.128L257.499 166.512C250.807 164.355 245.021 160.035 241.053 154.23Z" fill="#7999FE"/>
<path d="M248.131 162.083C234.178 151.581 231.371 131.685 241.873 117.731C252.376 103.778 272.272 100.971 286.225 111.473C300.178 121.976 302.985 141.872 292.483 155.825C281.98 169.778 262.084 172.585 248.131 162.083ZM286.092 111.65C272.236 101.221 252.479 104.008 242.05 117.864C231.62 131.72 234.408 151.477 248.264 161.907C262.12 172.336 281.877 169.548 292.306 155.692C302.736 141.836 299.948 122.079 286.092 111.65Z" fill="#737684"/>
<path d="M249.375 123.355C245.819 128.079 244.286 134.021 245.112 139.875C245.938 145.73 249.056 151.016 253.779 154.571L280.591 118.951C275.867 115.395 269.925 113.862 264.07 114.688C258.216 115.514 252.93 118.632 249.375 123.355Z" fill="#737684"/>
<path d="M280.59 118.951L253.779 154.572C258.503 158.127 264.445 159.661 270.299 158.835C276.153 158.008 281.44 154.891 284.995 150.167C288.55 145.444 290.084 139.501 289.258 133.647C288.432 127.793 285.314 122.507 280.59 118.951Z" fill="#7999FE"/>
<path d="M264.663 140.112C266.026 141.138 267.964 140.865 268.99 139.502C270.016 138.138 269.743 136.201 268.379 135.175C267.016 134.148 265.079 134.422 264.052 135.785C263.026 137.149 263.299 139.086 264.663 140.112Z" fill="#373A49"/>
<path d="M273.332 128.586L270.274 133.929L267.216 139.271L265.986 138.345L264.756 137.419L269.044 133.003L273.332 128.586Z" fill="#373A49"/>
<path d="M281.137 148.861L272.885 143.12L264.634 137.38L265.166 136.682L265.698 135.984L273.417 142.423L281.137 148.861Z" fill="#373A49"/>
<path d="M291.778 158.588C291.37 158.281 291.417 157.876 291.475 157.364C291.49 157.236 291.506 157.097 291.517 156.946L291.737 156.963C291.726 157.117 291.709 157.258 291.694 157.389C291.636 157.899 291.604 158.18 291.911 158.412C292.932 159.18 295.043 158.105 296.616 156.014C298.19 153.924 298.64 151.598 297.619 150.829C297.029 150.385 296.346 150.441 295.402 151.008L295.288 150.819C296.32 150.198 297.08 150.147 297.751 150.653C298.869 151.494 298.44 153.959 296.793 156.147C295.146 158.335 292.897 159.43 291.778 158.588Z" fill="#737684"/>
<path d="M192.072 25.3214L152.861 68.1287C154.967 72.7647 158.16 76.8247 162.169 79.9645L204.408 33.2766C200.978 29.6926 196.752 26.9673 192.072 25.3214Z" fill="#F0F4FF"/>
<path d="M191.915 25.3443L192.037 0.202788L171.511 0.103516L171.39 25.1673C178.062 22.9481 185.282 23.0104 191.915 25.3443Z" fill="#292F80"/>
<path d="M171.103 84.5094L170.978 110.235L191.504 110.335L191.629 84.5309C184.974 86.8006 177.753 86.793 171.103 84.5094Z" fill="#292F80"/>
<path d="M181.466 86.5597C164.003 86.4753 149.864 72.1988 149.948 54.735C150.033 37.2713 164.309 23.1322 181.773 23.2167C199.236 23.3011 213.376 37.5776 213.291 55.0413C213.207 72.5051 198.93 86.6442 181.466 86.5597ZM181.772 23.4374C164.43 23.3535 150.253 37.394 150.169 54.736C150.085 72.078 164.125 86.2552 181.467 86.339C198.809 86.4229 212.986 72.3823 213.07 55.0403C213.154 37.6982 199.114 23.5212 181.772 23.4374Z" fill="#737684"/>
<path d="M159.328 54.7807C159.3 60.6927 161.621 66.374 165.781 70.5747C169.941 74.7754 175.6 77.1513 181.512 77.1799L181.727 32.5971C175.815 32.5685 170.134 34.8896 165.933 39.0498C161.733 43.2101 159.357 48.8686 159.328 54.7807Z" fill="#737684"/>
<path d="M181.727 32.5977L181.512 77.1805C187.424 77.2091 193.105 74.888 197.306 70.7277C201.506 66.5675 203.882 60.909 203.911 54.9969C203.939 49.0848 201.618 43.4036 197.458 39.2029C193.298 35.0022 187.639 32.6262 181.727 32.5977Z" fill="#292F80"/>
<path d="M181.599 59.0824C183.306 59.0907 184.696 57.714 184.704 56.0075C184.712 54.301 183.336 52.9109 181.629 52.9026C179.923 52.8944 178.532 54.2711 178.524 55.9776C178.516 57.6841 179.893 59.0742 181.599 59.0824Z" fill="#373A49"/>
<path d="M181.664 44.6608L182.404 50.7717L183.144 56.8826L181.605 56.8752L180.065 56.8677L180.864 50.7642L181.664 44.6608Z" fill="#373A49"/>
<path d="M200.037 56.2552L189.99 56.5823L179.944 56.9091L179.953 56.0319L179.963 55.1544L190 55.7048L200.037 56.2552Z" fill="#373A49"/>
<path d="M214.382 57.6957C213.871 57.6933 213.666 57.3412 213.407 56.8955C213.342 56.7842 213.272 56.6634 213.191 56.5358L213.377 56.4173C213.46 56.5476 213.532 56.6708 213.598 56.7845C213.856 57.2286 213.998 57.4732 214.383 57.475C215.661 57.4812 216.711 55.3575 216.723 52.741C216.736 50.1246 215.707 47.9908 214.429 47.9846C213.691 47.9811 213.176 48.4338 212.758 49.4526L212.554 49.3688C213.011 48.2548 213.589 47.7599 214.43 47.7639C215.829 47.7707 216.957 50.0038 216.944 52.7421C216.931 55.4804 215.781 57.7025 214.382 57.6957Z" fill="#737684"/>
</g>
<defs>
<clipPath id="clip0_380_141">
<rect width="328.306" height="428" fill="white"/>
</clipPath>
</defs>
</svg>
