<svg width="1611" height="1512" viewBox="0 0 1611 1512" fill="none" xmlns="http://www.w3.org/2000/svg">
<rect y="1" width="1611" height="1511" fill="url(#paint0_linear_438_94)"/>
<path d="M445.718 1195H320.328V317.267H383.023C444.047 317.267 510.086 328.97 581.14 352.376C653.031 375.782 724.921 408.802 796.812 451.434C868.702 494.067 936.413 545.059 999.944 604.411C1064.31 662.926 1119.48 728.129 1165.46 800.02V317.267H1290.85V1195H1165.46C1165.46 1118.09 1149.58 1044.53 1117.81 974.313C1086.88 903.258 1045.5 838.055 993.675 778.704C941.847 718.516 884.167 665.434 820.636 619.458C757.941 572.645 693.992 534.61 628.789 505.352C563.586 475.259 502.562 456.032 445.718 447.673V1195Z" fill="white"/>
<defs>
<linearGradient id="paint0_linear_438_94" x1="1611" y1="756.5" x2="0" y2="756.5" gradientUnits="userSpaceOnUse">
<stop stop-color="#34409F"/>
<stop offset="1" stop-color="#4E66DD"/>
</linearGradient>
</defs>
</svg>
